<?xml version="1.0" encoding="utf-8"?>
<!-- Generator: Adobe Illustrator 24.1.2, SVG Export Plug-In . SVG Version: 6.00 Build 0)  -->
<svg version="1.1" id="danyow" xmlns="http://www.w3.org/2000/svg" x="0px" y="0px"
	 viewBox="0 0 2200 2200" style="enable-background:new 0 0 2200 2200;" xml:space="preserve">
<style type="text/css">
	.st0{fill:#CFB2C5;}
</style>
<path class="st0" d="M922.07,402.21c-37.26,25.42-19.52,64.44-26.75,99.85c-3.62,17.71-20.4,27.6-25.44,44.56
	c-9.63,32.41-2.41,104.38,15.65,132.89c16.71,26.37,86.93,27.58,85.09,62.47c-1.04,19.6-20.91,38.32-30.2,54.71
	c-22.59,39.86-47.69,87.14-63.91,129.83c-15.66,41.22-21.75,82.58-32.32,124.84c-26.52,105.93-46.96,209.27-36.46,319.59
	c2.69,28.26,20.84,41.89,34.02,64.99c10.65,18.68,15.87,43.69,18.9,64.84c3.73,26.11,1.44,53.58,1.5,79.9
	c0.02,11.66-2.07,27.29,5.13,37.38c16.04,22.47,56.68,9.61,76.27,30.1c22.46,23.48,23.48,67.71,33.47,97.31
	c6.22,18.44,13.14,37.69,24.78,53.51c10.36,14.08,25.88,24.48,32.11,41.38c5.08,13.77,3.01,30.52,3.01,44.94h109.86
	c12.08-0.03,31.24,2.82,39.81-8c11.37-14.37,2.53-40.72,0.99-56.91c-1.59-16.69,0.25-33.53-3.89-49.94
	c-9.21-36.48-30.56-68.53-40.01-104.86c-4.38-16.83-10.72-37.69-1.75-54.08c11.7-21.38,39.86-30.25,44.05-56.23
	c6.65-41.22-33.09-80.35-44.2-119.4c19.25-6.57,38.79-13.5,51.42-30.49c9.43-12.68,11.69-29.48,24.87-39.38
	c28.26-21.24,60.3-18.18,83.75-50.42c37.58-51.7,47.96-117.19,54.93-179.32c9.67-86.06,11.36-198.72-37.98-274.45
	c-15.98-24.53-40.38-31.57-59.5-51.51c-18.56-19.34-26.93-41.63-52.58-53.96c-27.83-13.38-55.34-11.51-84.89-14.58
	c30.71-16.12,64.93-22.28,94.43-41.56c39.32-25.7,56.24-69.16,65.37-113.24c28.61,13.54,115.18,57.66,113.44-9.89
	c-0.92-36.1-69.37-37.48-89-63.11c-17.04-22.24-12.98-60.51-26.3-86.79c-40.51-79.89-126.27-117.52-212.86-111.09
	C1017.38,319.77,924.91,338.19,922.07,402.21z"/>
</svg>
